<?xml version="1.0" encoding="UTF-8" standalone="no"?>
<!DOCTYPE svg PUBLIC "-//W3C//DTD SVG 1.1//EN" "http://www.w3.org/Graphics/SVG/1.1/DTD/svg11.dtd">
<svg width="100%" height="100%" viewBox="0 0 823 445" version="1.1" xmlns="http://www.w3.org/2000/svg"
    xmlns:xlink="http://www.w3.org/1999/xlink" xml:space="preserve" xmlns:serif="http://www.serif.com/"
    style="fill-rule:evenodd;clip-rule:evenodd;stroke-linejoin:round;stroke-miterlimit:2;">
    <g transform="matrix(1,0,0,1,-83.1167,-221.093)">
        <g id="A" transform="matrix(1,0,0,1,-93.3837,-192.301)">
            <path
                d="M203.75,449.644L199.45,438.594L185.3,438.594L181.05,449.644L176.5,449.644L190.45,413.794L194.5,413.794L208.4,449.644L203.75,449.644ZM194.1,423.794C194,423.528 193.834,423.044 193.6,422.344C193.367,421.644 193.142,420.919 192.925,420.169C192.709,419.419 192.534,418.844 192.4,418.444C192.167,419.478 191.9,420.486 191.6,421.469C191.3,422.453 191.05,423.228 190.85,423.794L186.8,434.594L198.1,434.594L194.1,423.794Z"
                style="fill-rule:nonzero;" />
        </g>
        <g id="B" transform="matrix(1,0,0,1,-93.3837,-192.301)">
            <path
                d="M223.5,413.944C227.967,413.944 231.342,414.603 233.625,415.919C235.909,417.236 237.05,419.528 237.05,422.794C237.05,424.894 236.467,426.636 235.3,428.019C234.134,429.403 232.45,430.294 230.25,430.694L230.25,430.944C231.75,431.178 233.109,431.611 234.325,432.244C235.542,432.878 236.5,433.778 237.2,434.944C237.9,436.111 238.25,437.628 238.25,439.494C238.25,442.728 237.142,445.228 234.925,446.994C232.709,448.761 229.684,449.644 225.85,449.644L213.3,449.644L213.3,413.944L223.5,413.944ZM224.4,429.144C227.467,429.144 229.567,428.653 230.7,427.669C231.834,426.686 232.4,425.228 232.4,423.294C232.4,421.328 231.709,419.919 230.325,419.069C228.942,418.219 226.734,417.794 223.7,417.794L217.8,417.794L217.8,429.144L224.4,429.144ZM217.8,432.894L217.8,445.844L225,445.844C228.167,445.844 230.367,445.228 231.6,443.994C232.834,442.761 233.45,441.144 233.45,439.144C233.45,437.278 232.809,435.769 231.525,434.619C230.242,433.469 227.95,432.894 224.65,432.894L217.8,432.894Z"
                style="fill-rule:nonzero;" />
        </g>
        <g id="C" transform="matrix(1,0,0,1,-93.3837,-192.301)">
            <path
                d="M261.1,417.394C257.267,417.394 254.25,418.678 252.05,421.244C249.85,423.811 248.75,427.328 248.75,431.794C248.75,436.228 249.775,439.736 251.825,442.319C253.875,444.903 256.95,446.194 261.05,446.194C262.617,446.194 264.1,446.061 265.5,445.794C266.9,445.528 268.267,445.194 269.6,444.794L269.6,448.694C268.267,449.194 266.892,449.561 265.475,449.794C264.059,450.028 262.367,450.144 260.4,450.144C256.767,450.144 253.734,449.394 251.3,447.894C248.867,446.394 247.042,444.261 245.825,441.494C244.609,438.728 244,435.478 244,431.744C244,428.144 244.659,424.969 245.975,422.219C247.292,419.469 249.234,417.319 251.8,415.769C254.367,414.219 257.484,413.444 261.15,413.444C264.917,413.444 268.2,414.144 271,415.544L269.2,419.344C268.1,418.844 266.875,418.394 265.525,417.994C264.175,417.594 262.7,417.394 261.1,417.394Z"
                style="fill-rule:nonzero;" />
        </g>
        <g id="D" transform="matrix(1,0,0,1,-93.3837,-192.301)">
            <path
                d="M306,431.444C306,437.478 304.359,442.019 301.075,445.069C297.792,448.119 293.217,449.644 287.35,449.644L277.4,449.644L277.4,413.944L288.4,413.944C292,413.944 295.117,414.611 297.75,415.944C300.384,417.278 302.417,419.236 303.85,421.819C305.284,424.403 306,427.611 306,431.444ZM301.25,431.594C301.25,426.828 300.075,423.336 297.725,421.119C295.375,418.903 292.05,417.794 287.75,417.794L281.9,417.794L281.9,445.794L286.75,445.794C296.417,445.794 301.25,441.061 301.25,431.594Z"
                style="fill-rule:nonzero;" />
        </g>
        <g id="E" transform="matrix(1,0,0,1,-93.3837,-192.301)">
            <path
                d="M333.85,449.644L313.9,449.644L313.9,413.944L333.85,413.944L333.85,417.894L318.4,417.894L318.4,429.044L332.95,429.044L332.95,432.944L318.4,432.944L318.4,445.694L333.85,445.694L333.85,449.644Z"
                style="fill-rule:nonzero;" />
        </g>
        <g id="F" transform="matrix(1,0,0,1,-93.3837,-192.301)">
            <path
                d="M346.2,449.644L341.7,449.644L341.7,413.944L361.65,413.944L361.65,417.894L346.2,417.894L346.2,430.544L360.7,430.544L360.7,434.494L346.2,434.494L346.2,449.644Z"
                style="fill-rule:nonzero;" />
        </g>
        <g id="G" transform="matrix(1,0,0,1,-93.3837,-192.301)">
            <path
                d="M383.15,430.794L395.5,430.794L395.5,448.294C393.567,448.928 391.617,449.394 389.65,449.694C387.684,449.994 385.45,450.144 382.95,450.144C379.25,450.144 376.134,449.403 373.6,447.919C371.067,446.436 369.142,444.319 367.825,441.569C366.509,438.819 365.85,435.561 365.85,431.794C365.85,428.061 366.584,424.828 368.05,422.094C369.517,419.361 371.625,417.236 374.375,415.719C377.125,414.203 380.45,413.444 384.35,413.444C386.35,413.444 388.242,413.628 390.025,413.994C391.809,414.361 393.467,414.878 395,415.544L393.3,419.444C392.034,418.878 390.609,418.394 389.025,417.994C387.442,417.594 385.8,417.394 384.1,417.394C379.834,417.394 376.509,418.678 374.125,421.244C371.742,423.811 370.55,427.328 370.55,431.794C370.55,434.628 371.009,437.136 371.925,439.319C372.842,441.503 374.284,443.203 376.25,444.419C378.217,445.636 380.8,446.244 384,446.244C385.567,446.244 386.9,446.161 388,445.994C389.1,445.828 390.1,445.628 391,445.394L391,434.794L383.15,434.794L383.15,430.794Z"
                style="fill-rule:nonzero;" />
        </g>
        <g id="H" transform="matrix(1,0,0,1,-93.3837,-192.301)">
            <path
                d="M431.35,449.644L426.85,449.644L426.85,432.994L408.55,432.994L408.55,449.644L404.05,449.644L404.05,413.944L408.55,413.944L408.55,429.044L426.85,429.044L426.85,413.944L431.35,413.944L431.35,449.644Z"
                style="fill-rule:nonzero;" />
        </g>
        <g id="I" transform="matrix(1,0,0,1,-93.3837,-192.301)">
            <path
                d="M451.15,449.644L438.25,449.644L438.25,447.044L442.45,446.094L442.45,417.544L438.25,416.544L438.25,413.944L451.15,413.944L451.15,416.544L446.95,417.544L446.95,446.094L451.15,447.044L451.15,449.644Z"
                style="fill-rule:nonzero;" />
        </g>
        <g id="J" transform="matrix(1,0,0,1,-93.3837,-192.301)">
            <path
                d="M453,459.144C452.2,459.144 451.5,459.086 450.9,458.969C450.3,458.853 449.767,458.694 449.3,458.494L449.3,454.694C449.834,454.828 450.4,454.944 451,455.044C451.6,455.144 452.234,455.194 452.9,455.194C453.734,455.194 454.525,455.028 455.275,454.694C456.025,454.361 456.634,453.778 457.1,452.944C457.567,452.111 457.8,450.944 457.8,449.444L457.8,413.944L462.3,413.944L462.3,449.094C462.3,452.528 461.45,455.061 459.75,456.694C458.05,458.328 455.8,459.144 453,459.144Z"
                style="fill-rule:nonzero;" />
        </g>
        <g id="K" transform="matrix(1,0,0,1,-93.3837,-192.301)">
            <path
                d="M497.8,449.644L492.5,449.644L479.85,432.594L476.2,435.794L476.2,449.644L471.7,449.644L471.7,413.944L476.2,413.944L476.2,431.544C477.2,430.411 478.217,429.278 479.25,428.144C480.284,427.011 481.317,425.878 482.35,424.744L492,413.944L497.25,413.944L483.1,429.494L497.8,449.644Z"
                style="fill-rule:nonzero;" />
        </g>
        <g id="L" transform="matrix(1,0,0,1,-93.3837,-192.301)">
            <path
                d="M502.65,449.644L502.65,413.944L507.15,413.944L507.15,445.644L522.75,445.644L522.75,449.644L502.65,449.644Z"
                style="fill-rule:nonzero;" />
        </g>
        <g id="M" transform="matrix(1,0,0,1,-93.3837,-192.301)">
            <path
                d="M544.6,449.644L532.85,418.344L532.65,418.344C532.75,419.378 532.834,420.769 532.9,422.519C532.967,424.269 533,426.094 533,427.994L533,449.644L528.85,449.644L528.85,413.944L535.5,413.944L546.5,443.194L546.7,443.194L557.9,413.944L564.5,413.944L564.5,449.644L560.05,449.644L560.05,427.694C560.05,425.961 560.092,424.244 560.175,422.544C560.259,420.844 560.334,419.461 560.4,418.394L560.2,418.394L548.3,449.644L544.6,449.644Z"
                style="fill-rule:nonzero;" />
        </g>
        <g id="N" transform="matrix(1,0,0,1,-93.3837,-192.301)">
            <path
                d="M602.5,449.644L597.25,449.644L578.15,419.994L577.95,419.994C578.017,421.161 578.1,422.611 578.2,424.344C578.3,426.078 578.35,427.861 578.35,429.694L578.35,449.644L574.2,449.644L574.2,413.944L579.4,413.944L598.45,443.494L598.65,443.494C598.617,442.961 598.575,442.161 598.525,441.094C598.475,440.028 598.425,438.861 598.375,437.594C598.325,436.328 598.3,435.161 598.3,434.094L598.3,413.944L602.5,413.944L602.5,449.644Z"
                style="fill-rule:nonzero;" />
        </g>
        <g id="O" transform="matrix(1,0,0,1,-93.3837,-192.301)">
            <path
                d="M643.35,431.744C643.35,435.444 642.725,438.669 641.475,441.419C640.225,444.169 638.384,446.311 635.95,447.844C633.517,449.378 630.5,450.144 626.9,450.144C623.2,450.144 620.125,449.378 617.675,447.844C615.225,446.311 613.4,444.161 612.2,441.394C611,438.628 610.4,435.394 610.4,431.694C610.4,428.028 611,424.828 612.2,422.094C613.4,419.361 615.225,417.228 617.675,415.694C620.125,414.161 623.217,413.394 626.95,413.394C630.517,413.394 633.517,414.153 635.95,415.669C638.384,417.186 640.225,419.319 641.475,422.069C642.725,424.819 643.35,428.044 643.35,431.744ZM615.15,431.744C615.15,436.244 616.1,439.786 618,442.369C619.9,444.953 622.867,446.244 626.9,446.244C630.967,446.244 633.934,444.953 635.8,442.369C637.667,439.786 638.6,436.244 638.6,431.744C638.6,427.244 637.667,423.719 635.8,421.169C633.934,418.619 630.984,417.344 626.95,417.344C622.917,417.344 619.942,418.619 618.025,421.169C616.109,423.719 615.15,427.244 615.15,431.744Z"
                style="fill-rule:nonzero;" />
        </g>
        <g id="P" transform="matrix(1,0,0,1,-93.3837,-192.301)">
            <path
                d="M660.7,413.944C665.367,413.944 668.767,414.861 670.9,416.694C673.034,418.528 674.1,421.111 674.1,424.444C674.1,426.411 673.659,428.253 672.775,429.969C671.892,431.686 670.409,433.078 668.325,434.144C666.242,435.211 663.417,435.744 659.85,435.744L655.75,435.744L655.75,449.644L651.25,449.644L651.25,413.944L660.7,413.944ZM660.3,417.794L655.75,417.794L655.75,431.894L659.35,431.894C662.75,431.894 665.284,431.344 666.95,430.244C668.617,429.144 669.45,427.278 669.45,424.644C669.45,422.344 668.717,420.628 667.25,419.494C665.784,418.361 663.467,417.794 660.3,417.794Z"
                style="fill-rule:nonzero;" />
        </g>
        <g id="Q" transform="matrix(1,0,0,1,-93.3837,-192.301)">
            <path
                d="M712.65,431.744C712.65,436.111 711.775,439.828 710.025,442.894C708.275,445.961 705.684,448.078 702.25,449.244L710.8,458.144L704.35,458.144L697.45,450.094C697.25,450.094 697.042,450.103 696.825,450.119C696.609,450.136 696.4,450.144 696.2,450.144C692.5,450.144 689.425,449.378 686.975,447.844C684.525,446.311 682.7,444.161 681.5,441.394C680.3,438.628 679.7,435.394 679.7,431.694C679.7,428.028 680.3,424.828 681.5,422.094C682.7,419.361 684.525,417.228 686.975,415.694C689.425,414.161 692.517,413.394 696.25,413.394C699.817,413.394 702.817,414.153 705.25,415.669C707.684,417.186 709.525,419.319 710.775,422.069C712.025,424.819 712.65,428.044 712.65,431.744ZM684.45,431.744C684.45,436.244 685.4,439.786 687.3,442.369C689.2,444.953 692.167,446.244 696.2,446.244C700.267,446.244 703.234,444.953 705.1,442.369C706.967,439.786 707.9,436.244 707.9,431.744C707.9,427.244 706.967,423.719 705.1,421.169C703.234,418.619 700.284,417.344 696.25,417.344C692.217,417.344 689.242,418.619 687.325,421.169C685.409,423.719 684.45,427.244 684.45,431.744Z"
                style="fill-rule:nonzero;" />
        </g>
        <g id="R" transform="matrix(1,0,0,1,-93.3837,-192.301)">
            <path
                d="M730.4,413.944C734.834,413.944 738.109,414.786 740.225,416.469C742.342,418.153 743.4,420.694 743.4,424.094C743.4,425.994 743.05,427.578 742.35,428.844C741.65,430.111 740.759,431.119 739.675,431.869C738.592,432.619 737.45,433.211 736.25,433.644L746.05,449.644L740.8,449.644L732.15,434.894L725.05,434.894L725.05,449.644L720.55,449.644L720.55,413.944L730.4,413.944ZM730.15,417.844L725.05,417.844L725.05,431.094L730.4,431.094C733.3,431.094 735.417,430.519 736.75,429.369C738.084,428.219 738.75,426.528 738.75,424.294C738.75,421.961 738.05,420.303 736.65,419.319C735.25,418.336 733.084,417.844 730.15,417.844Z"
                style="fill-rule:nonzero;" />
        </g>
        <g id="S" transform="matrix(1,0,0,1,-93.3837,-192.301)">
            <path
                d="M771.9,440.094C771.9,443.261 770.75,445.728 768.45,447.494C766.15,449.261 763.05,450.144 759.15,450.144C757.15,450.144 755.3,449.994 753.6,449.694C751.9,449.394 750.484,448.978 749.35,448.444L749.35,444.144C750.55,444.678 752.042,445.161 753.825,445.594C755.609,446.028 757.45,446.244 759.35,446.244C762.017,446.244 764.025,445.728 765.375,444.694C766.725,443.661 767.4,442.261 767.4,440.494C767.4,439.328 767.15,438.344 766.65,437.544C766.15,436.744 765.292,436.003 764.075,435.319C762.859,434.636 761.167,433.911 759,433.144C755.967,432.044 753.675,430.694 752.125,429.094C750.575,427.494 749.8,425.311 749.8,422.544C749.8,420.644 750.284,419.019 751.25,417.669C752.217,416.319 753.559,415.278 755.275,414.544C756.992,413.811 758.967,413.444 761.2,413.444C763.167,413.444 764.967,413.628 766.6,413.994C768.234,414.361 769.717,414.844 771.05,415.444L769.65,419.294C768.417,418.761 767.075,418.311 765.625,417.944C764.175,417.578 762.667,417.394 761.1,417.394C758.867,417.394 757.184,417.869 756.05,418.819C754.917,419.769 754.35,421.028 754.35,422.594C754.35,423.794 754.6,424.794 755.1,425.594C755.6,426.394 756.417,427.111 757.55,427.744C758.684,428.378 760.217,429.061 762.15,429.794C764.25,430.561 766.025,431.386 767.475,432.269C768.925,433.153 770.025,434.211 770.775,435.444C771.525,436.678 771.9,438.228 771.9,440.094Z"
                style="fill-rule:nonzero;" />
        </g>
        <g id="T" transform="matrix(1,0,0,1,-93.3837,-192.301)">
            <path
                d="M790.4,449.644L785.9,449.644L785.9,417.894L774.75,417.894L774.75,413.944L801.5,413.944L801.5,417.894L790.4,417.894L790.4,449.644Z"
                style="fill-rule:nonzero;" />
        </g>
        <g id="U" transform="matrix(1,0,0,1,-93.3837,-192.301)">
            <path
                d="M834.05,437.044C834.05,439.511 833.55,441.736 832.55,443.719C831.55,445.703 830.025,447.269 827.975,448.419C825.925,449.569 823.317,450.144 820.15,450.144C815.717,450.144 812.342,448.936 810.025,446.519C807.709,444.103 806.55,440.911 806.55,436.944L806.55,413.944L811.05,413.944L811.05,437.094C811.05,439.994 811.825,442.244 813.375,443.844C814.925,445.444 817.267,446.244 820.4,446.244C823.634,446.244 825.975,445.386 827.425,443.669C828.875,441.953 829.6,439.744 829.6,437.044L829.6,413.944L834.05,413.944L834.05,437.044Z"
                style="fill-rule:nonzero;" />
        </g>
        <g id="V" transform="matrix(1,0,0,1,-93.3837,-192.301)">
            <path
                d="M868.6,413.944L855.85,449.644L851.35,449.644L838.6,413.944L843.3,413.944L851.35,436.844C851.884,438.311 852.334,439.686 852.7,440.969C853.067,442.253 853.367,443.478 853.6,444.644C853.834,443.478 854.134,442.244 854.5,440.944C854.867,439.644 855.317,438.244 855.85,436.744L863.85,413.944L868.6,413.944Z"
                style="fill-rule:nonzero;" />
        </g>
        <g id="W" transform="matrix(1,0,0,1,-93.3837,-192.301)">
            <path
                d="M914.45,413.944L904.95,449.644L900.4,449.644L893.45,426.244C893.184,425.278 892.917,424.311 892.65,423.344C892.384,422.378 892.167,421.519 892,420.769C891.834,420.019 891.717,419.494 891.65,419.194C891.617,419.628 891.442,420.553 891.125,421.969C890.809,423.386 890.417,424.861 889.95,426.394L883.2,449.644L878.65,449.644L869.2,413.944L873.9,413.944L879.45,435.744C879.85,437.278 880.192,438.761 880.475,440.194C880.759,441.628 880.984,442.978 881.15,444.244C881.317,442.944 881.567,441.528 881.9,439.994C882.234,438.461 882.617,436.961 883.05,435.494L889.35,413.944L894,413.944L900.55,435.644C901.017,437.178 901.417,438.703 901.75,440.219C902.084,441.736 902.334,443.078 902.5,444.244C902.667,443.011 902.9,441.669 903.2,440.219C903.5,438.769 903.85,437.261 904.25,435.694L909.75,413.944L914.45,413.944Z"
                style="fill-rule:nonzero;" />
        </g>
        <g id="X" transform="matrix(1,0,0,1,-93.3837,-192.301)">
            <path
                d="M944.2,449.644L939.1,449.644L929.65,434.144L920.05,449.644L915.3,449.644L927.15,431.044L916.05,413.944L921.05,413.944L929.8,427.944L938.6,413.944L943.35,413.944L932.3,430.944L944.2,449.644Z"
                style="fill-rule:nonzero;" />
        </g>
        <g id="Y" transform="matrix(1,0,0,1,-93.3837,-192.301)">
            <path
                d="M958.55,431.494L967.85,413.944L972.7,413.944L960.8,435.794L960.8,449.644L956.3,449.644L956.3,435.994L944.4,413.944L949.3,413.944L958.55,431.494Z"
                style="fill-rule:nonzero;" />
        </g>
        <g id="Z" transform="matrix(1,0,0,1,-93.3837,-192.301)">
            <path
                d="M999.35,449.644L974.6,449.644L974.6,446.244L993.4,417.944L975.2,417.944L975.2,413.944L998.85,413.944L998.85,417.344L980.05,445.644L999.35,445.644L999.35,449.644Z"
                style="fill-rule:nonzero;" />
        </g>
        <g id="a" transform="matrix(1,0,0,1,-93.3837,-192.301)">
            <path
                d="M190.9,522.394C194.167,522.394 196.584,523.111 198.15,524.544C199.717,525.978 200.5,528.261 200.5,531.394L200.5,549.644L197.3,549.644L196.45,545.844L196.25,545.844C195.084,547.311 193.859,548.394 192.575,549.094C191.292,549.794 189.517,550.144 187.25,550.144C184.817,550.144 182.8,549.503 181.2,548.219C179.6,546.936 178.8,544.928 178.8,542.194C178.8,539.528 179.85,537.469 181.95,536.019C184.05,534.569 187.284,533.778 191.65,533.644L196.2,533.494L196.2,531.894C196.2,529.661 195.717,528.111 194.75,527.244C193.784,526.378 192.417,525.944 190.65,525.944C189.25,525.944 187.917,526.153 186.65,526.569C185.384,526.986 184.2,527.461 183.1,527.994L181.75,524.694C182.917,524.061 184.3,523.519 185.9,523.069C187.5,522.619 189.167,522.394 190.9,522.394ZM192.2,536.694C188.867,536.828 186.559,537.361 185.275,538.294C183.992,539.228 183.35,540.544 183.35,542.244C183.35,543.744 183.809,544.844 184.725,545.544C185.642,546.244 186.817,546.594 188.25,546.594C190.517,546.594 192.4,545.969 193.9,544.719C195.4,543.469 196.15,541.544 196.15,538.944L196.15,536.544L192.2,536.694Z"
                style="fill-rule:nonzero;" />
        </g>
        <g id="b" transform="matrix(1,0,0,1,-93.3837,-192.301)">
            <path
                d="M213.2,520.894C213.2,522.028 213.175,523.086 213.125,524.069C213.075,525.053 213.017,525.828 212.95,526.394L213.2,526.394C213.967,525.261 215.017,524.311 216.35,523.544C217.684,522.778 219.4,522.394 221.5,522.394C224.834,522.394 227.509,523.553 229.525,525.869C231.542,528.186 232.55,531.644 232.55,536.244C232.55,540.844 231.534,544.311 229.5,546.644C227.467,548.978 224.8,550.144 221.5,550.144C219.4,550.144 217.684,549.761 216.35,548.994C215.017,548.228 213.967,547.311 213.2,546.244L212.85,546.244L211.95,549.644L208.8,549.644L208.8,511.644L213.2,511.644L213.2,520.894ZM220.75,526.044C217.917,526.044 215.95,526.861 214.85,528.494C213.75,530.128 213.2,532.661 213.2,536.094L213.2,536.294C213.2,539.594 213.742,542.119 214.825,543.869C215.909,545.619 217.917,546.494 220.85,546.494C223.25,546.494 225.042,545.611 226.225,543.844C227.409,542.078 228,539.528 228,536.194C228,529.428 225.584,526.044 220.75,526.044Z"
                style="fill-rule:nonzero;" />
        </g>
        <g id="c" transform="matrix(1,0,0,1,-93.3837,-192.301)">
            <path
                d="M250.3,550.144C247.934,550.144 245.825,549.661 243.975,548.694C242.125,547.728 240.675,546.228 239.625,544.194C238.575,542.161 238.05,539.561 238.05,536.394C238.05,533.094 238.6,530.411 239.7,528.344C240.8,526.278 242.292,524.761 244.175,523.794C246.059,522.828 248.2,522.344 250.6,522.344C251.967,522.344 253.284,522.486 254.55,522.769C255.817,523.053 256.85,523.394 257.65,523.794L256.3,527.444C255.5,527.144 254.567,526.861 253.5,526.594C252.434,526.328 251.434,526.194 250.5,526.194C245.234,526.194 242.6,529.578 242.6,536.344C242.6,539.578 243.242,542.053 244.525,543.769C245.809,545.486 247.717,546.344 250.25,546.344C251.717,546.344 253.009,546.194 254.125,545.894C255.242,545.594 256.267,545.228 257.2,544.794L257.2,548.694C256.3,549.161 255.309,549.519 254.225,549.769C253.142,550.019 251.834,550.144 250.3,550.144Z"
                style="fill-rule:nonzero;" />
        </g>
        <g id="d" transform="matrix(1,0,0,1,-93.3837,-192.301)">
            <path
                d="M273.05,550.144C269.717,550.144 267.05,548.986 265.05,546.669C263.05,544.353 262.05,540.894 262.05,536.294C262.05,531.694 263.059,528.219 265.075,525.869C267.092,523.519 269.767,522.344 273.1,522.344C275.167,522.344 276.859,522.728 278.175,523.494C279.492,524.261 280.567,525.194 281.4,526.294L281.7,526.294C281.667,525.861 281.609,525.219 281.525,524.369C281.442,523.519 281.4,522.844 281.4,522.344L281.4,511.644L285.8,511.644L285.8,549.644L282.25,549.644L281.6,546.044L281.4,546.044C280.6,547.178 279.534,548.144 278.2,548.944C276.867,549.744 275.15,550.144 273.05,550.144ZM273.75,546.494C276.584,546.494 278.575,545.719 279.725,544.169C280.875,542.619 281.45,540.278 281.45,537.144L281.45,536.344C281.45,533.011 280.9,530.453 279.8,528.669C278.7,526.886 276.667,525.994 273.7,525.994C271.334,525.994 269.559,526.936 268.375,528.819C267.192,530.703 266.6,533.228 266.6,536.394C266.6,539.594 267.192,542.078 268.375,543.844C269.559,545.611 271.35,546.494 273.75,546.494Z"
                style="fill-rule:nonzero;" />
        </g>
        <g id="e" transform="matrix(1,0,0,1,-93.3837,-192.301)">
            <path
                d="M304.65,522.344C306.95,522.344 308.925,522.844 310.575,523.844C312.225,524.844 313.492,526.253 314.375,528.069C315.259,529.886 315.7,532.011 315.7,534.444L315.7,537.094L297.35,537.094C297.417,540.128 298.192,542.436 299.675,544.019C301.159,545.603 303.234,546.394 305.9,546.394C307.6,546.394 309.109,546.236 310.425,545.919C311.742,545.603 313.1,545.144 314.5,544.544L314.5,548.394C313.134,548.994 311.784,549.436 310.45,549.719C309.117,550.003 307.534,550.144 305.7,550.144C303.167,550.144 300.925,549.628 298.975,548.594C297.025,547.561 295.509,546.019 294.425,543.969C293.342,541.919 292.8,539.411 292.8,536.444C292.8,533.511 293.292,530.994 294.275,528.894C295.259,526.794 296.642,525.178 298.425,524.044C300.209,522.911 302.284,522.344 304.65,522.344ZM304.6,525.944C302.5,525.944 300.842,526.619 299.625,527.969C298.409,529.319 297.684,531.194 297.45,533.594L311.1,533.594C311.067,531.328 310.534,529.486 309.5,528.069C308.467,526.653 306.834,525.944 304.6,525.944Z"
                style="fill-rule:nonzero;" />
        </g>
        <g id="f" transform="matrix(1,0,0,1,-93.3837,-192.301)">
            <path
                d="M334.85,526.244L328.1,526.244L328.1,549.644L323.7,549.644L323.7,526.244L319,526.244L319,524.194L323.7,522.694L323.7,521.144C323.7,517.678 324.467,515.186 326,513.669C327.534,512.153 329.667,511.394 332.4,511.394C333.467,511.394 334.442,511.486 335.325,511.669C336.209,511.853 336.967,512.061 337.6,512.294L336.45,515.744C335.917,515.578 335.3,515.411 334.6,515.244C333.9,515.078 333.184,514.994 332.45,514.994C330.984,514.994 329.892,515.486 329.175,516.469C328.459,517.453 328.1,518.994 328.1,521.094L328.1,522.844L334.85,522.844L334.85,526.244Z"
                style="fill-rule:nonzero;" />
        </g>
        <g id="g" transform="matrix(1,0,0,1,-93.3837,-192.301)">
            <path
                d="M349.2,522.344C350.967,522.344 352.559,522.678 353.975,523.344C355.392,524.011 356.6,525.028 357.6,526.394L357.85,526.394L358.45,522.844L361.95,522.844L361.95,550.094C361.95,553.928 360.975,556.811 359.025,558.744C357.075,560.678 354.05,561.644 349.95,561.644C346.017,561.644 342.8,561.078 340.3,559.944L340.3,555.894C342.934,557.294 346.234,557.994 350.2,557.994C352.5,557.994 354.309,557.319 355.625,555.969C356.942,554.619 357.6,552.778 357.6,550.444L357.6,549.394C357.6,548.994 357.617,548.419 357.65,547.669C357.684,546.919 357.717,546.394 357.75,546.094L357.55,546.094C355.75,548.794 352.984,550.144 349.25,550.144C345.784,550.144 343.075,548.928 341.125,546.494C339.175,544.061 338.2,540.661 338.2,536.294C338.2,532.028 339.175,528.636 341.125,526.119C343.075,523.603 345.767,522.344 349.2,522.344ZM349.8,526.044C347.567,526.044 345.834,526.936 344.6,528.719C343.367,530.503 342.75,533.044 342.75,536.344C342.75,539.644 343.359,542.169 344.575,543.919C345.792,545.669 347.567,546.544 349.9,546.544C352.6,546.544 354.567,545.819 355.8,544.369C357.034,542.919 357.65,540.578 357.65,537.344L357.65,536.294C357.65,532.628 357.017,530.003 355.75,528.419C354.484,526.836 352.5,526.044 349.8,526.044Z"
                style="fill-rule:nonzero;" />
        </g>
        <g id="h" transform="matrix(1,0,0,1,-93.3837,-192.301)">
            <path
                d="M374.85,522.794C374.85,524.128 374.767,525.378 374.6,526.544L374.9,526.544C375.767,525.178 376.942,524.144 378.425,523.444C379.909,522.744 381.517,522.394 383.25,522.394C386.517,522.394 388.967,523.169 390.6,524.719C392.234,526.269 393.05,528.761 393.05,532.194L393.05,549.644L388.7,549.644L388.7,532.494C388.7,528.194 386.7,526.044 382.7,526.044C379.7,526.044 377.642,526.886 376.525,528.569C375.409,530.253 374.85,532.661 374.85,535.794L374.85,549.644L370.45,549.644L370.45,511.644L374.85,511.644L374.85,522.794Z"
                style="fill-rule:nonzero;" />
        </g>
        <g id="i" transform="matrix(1,0,0,1,-93.3837,-192.301)">
            <path
                d="M403.6,512.794C404.267,512.794 404.859,513.019 405.375,513.469C405.892,513.919 406.15,514.628 406.15,515.594C406.15,516.528 405.892,517.228 405.375,517.694C404.859,518.161 404.267,518.394 403.6,518.394C402.867,518.394 402.25,518.161 401.75,517.694C401.25,517.228 401,516.528 401,515.594C401,514.628 401.25,513.919 401.75,513.469C402.25,513.019 402.867,512.794 403.6,512.794ZM405.75,522.844L405.75,549.644L401.35,549.644L401.35,522.844L405.75,522.844Z"
                style="fill-rule:nonzero;" />
        </g>
        <g id="j" transform="matrix(1,0,0,1,-93.3837,-192.301)">
            <path
                d="M413.9,515.594C413.9,514.628 414.15,513.919 414.65,513.469C415.15,513.019 415.767,512.794 416.5,512.794C417.167,512.794 417.759,513.019 418.275,513.469C418.792,513.919 419.05,514.628 419.05,515.594C419.05,516.528 418.792,517.228 418.275,517.694C417.759,518.161 417.167,518.394 416.5,518.394C415.767,518.394 415.15,518.161 414.65,517.694C414.15,517.228 413.9,516.528 413.9,515.594ZM411.1,561.644C410.267,561.644 409.534,561.586 408.9,561.469C408.267,561.353 407.717,561.211 407.25,561.044L407.25,557.494C407.75,557.628 408.267,557.744 408.8,557.844C409.334,557.944 409.917,557.994 410.55,557.994C411.617,557.994 412.5,557.703 413.2,557.119C413.9,556.536 414.25,555.428 414.25,553.794L414.25,522.844L418.65,522.844L418.65,553.644C418.65,556.144 418.05,558.103 416.85,559.519C415.65,560.936 413.734,561.644 411.1,561.644Z"
                style="fill-rule:nonzero;" />
        </g>
        <g id="k" transform="matrix(1,0,0,1,-93.3837,-192.301)">
            <path
                d="M431.5,531.494C431.5,532.028 431.475,532.728 431.425,533.594C431.375,534.461 431.334,535.211 431.3,535.844L431.5,535.844C431.7,535.578 432,535.194 432.4,534.694C432.8,534.194 433.209,533.686 433.625,533.169C434.042,532.653 434.4,532.228 434.7,531.894L443.25,522.844L448.4,522.844L437.55,534.294L449.15,549.644L443.85,549.644L434.55,537.144L431.5,539.794L431.5,549.644L427.15,549.644L427.15,511.644L431.5,511.644L431.5,531.494Z"
                style="fill-rule:nonzero;" />
        </g>
        <g id="l" transform="matrix(1,0,0,1,-93.3837,-192.301)">
            <path d="M458.25,549.644L453.85,549.644L453.85,511.644L458.25,511.644L458.25,549.644Z"
                style="fill-rule:nonzero;" />
        </g>
        <g id="m" transform="matrix(1,0,0,1,-93.3837,-192.301)">
            <path
                d="M496.15,522.344C499.184,522.344 501.45,523.119 502.95,524.669C504.45,526.219 505.2,528.728 505.2,532.194L505.2,549.644L500.85,549.644L500.85,532.394C500.85,528.161 499.034,526.044 495.4,526.044C492.8,526.044 490.942,526.794 489.825,528.294C488.709,529.794 488.15,531.978 488.15,534.844L488.15,549.644L483.8,549.644L483.8,532.394C483.8,528.161 481.967,526.044 478.3,526.044C475.6,526.044 473.734,526.878 472.7,528.544C471.667,530.211 471.15,532.611 471.15,535.744L471.15,549.644L466.75,549.644L466.75,522.844L470.3,522.844L470.95,526.494L471.2,526.494C472.034,525.094 473.159,524.053 474.575,523.369C475.992,522.686 477.5,522.344 479.1,522.344C483.3,522.344 486.034,523.844 487.3,526.844L487.55,526.844C488.45,525.311 489.675,524.178 491.225,523.444C492.775,522.711 494.417,522.344 496.15,522.344Z"
                style="fill-rule:nonzero;" />
        </g>
        <g id="n" transform="matrix(1,0,0,1,-93.3837,-192.301)">
            <path
                d="M526.4,522.344C529.6,522.344 532.017,523.119 533.65,524.669C535.284,526.219 536.1,528.728 536.1,532.194L536.1,549.644L531.75,549.644L531.75,532.494C531.75,528.194 529.75,526.044 525.75,526.044C522.784,526.044 520.734,526.878 519.6,528.544C518.467,530.211 517.9,532.611 517.9,535.744L517.9,549.644L513.5,549.644L513.5,522.844L517.05,522.844L517.7,526.494L517.95,526.494C518.817,525.094 520.017,524.053 521.55,523.369C523.084,522.686 524.7,522.344 526.4,522.344Z"
                style="fill-rule:nonzero;" />
        </g>
        <g id="o" transform="matrix(1,0,0,1,-93.3837,-192.301)">
            <path
                d="M567.7,536.194C567.7,540.628 566.575,544.061 564.325,546.494C562.075,548.928 559.034,550.144 555.2,550.144C552.834,550.144 550.725,549.603 548.875,548.519C547.025,547.436 545.567,545.853 544.5,543.769C543.434,541.686 542.9,539.161 542.9,536.194C542.9,531.761 544.017,528.344 546.25,525.944C548.484,523.544 551.517,522.344 555.35,522.344C557.784,522.344 559.925,522.886 561.775,523.969C563.625,525.053 565.075,526.619 566.125,528.669C567.175,530.719 567.7,533.228 567.7,536.194ZM547.45,536.194C547.45,539.361 548.075,541.869 549.325,543.719C550.575,545.569 552.567,546.494 555.3,546.494C558,546.494 559.984,545.569 561.25,543.719C562.517,541.869 563.15,539.361 563.15,536.194C563.15,533.028 562.517,530.544 561.25,528.744C559.984,526.944 557.984,526.044 555.25,526.044C552.517,526.044 550.534,526.944 549.3,528.744C548.067,530.544 547.45,533.028 547.45,536.194Z"
                style="fill-rule:nonzero;" />
        </g>
        <g id="p" transform="matrix(1,0,0,1,-93.3837,-192.301)">
            <path
                d="M587.4,522.344C590.7,522.344 593.359,523.494 595.375,525.794C597.392,528.094 598.4,531.561 598.4,536.194C598.4,540.761 597.392,544.228 595.375,546.594C593.359,548.961 590.684,550.144 587.35,550.144C585.284,550.144 583.575,549.753 582.225,548.969C580.875,548.186 579.817,547.278 579.05,546.244L578.75,546.244C578.817,546.811 578.884,547.528 578.95,548.394C579.017,549.261 579.05,550.011 579.05,550.644L579.05,561.644L574.65,561.644L574.65,522.844L578.25,522.844L578.85,526.494L579.05,526.494C579.85,525.328 580.9,524.344 582.2,523.544C583.5,522.744 585.234,522.344 587.4,522.344ZM586.6,526.044C583.867,526.044 581.942,526.811 580.825,528.344C579.709,529.878 579.117,532.211 579.05,535.344L579.05,536.194C579.05,539.494 579.592,542.036 580.675,543.819C581.759,545.603 583.767,546.494 586.7,546.494C588.334,546.494 589.675,546.044 590.725,545.144C591.775,544.244 592.559,543.019 593.075,541.469C593.592,539.919 593.85,538.144 593.85,536.144C593.85,533.078 593.259,530.628 592.075,528.794C590.892,526.961 589.067,526.044 586.6,526.044Z"
                style="fill-rule:nonzero;" />
        </g>
        <g id="q" transform="matrix(1,0,0,1,-93.3837,-192.301)">
            <path
                d="M623.25,550.194C623.25,549.594 623.267,548.894 623.3,548.094C623.334,547.294 623.4,546.611 623.5,546.044L623.2,546.044C622.434,547.178 621.375,548.144 620.025,548.944C618.675,549.744 616.934,550.144 614.8,550.144C611.567,550.144 608.942,548.986 606.925,546.669C604.909,544.353 603.9,540.894 603.9,536.294C603.9,531.694 604.925,528.219 606.975,525.869C609.025,523.519 611.684,522.344 614.95,522.344C617.05,522.344 618.767,522.744 620.1,523.544C621.434,524.344 622.5,525.328 623.3,526.494L623.5,526.494L624.15,522.844L627.65,522.844L627.65,561.644L623.25,561.644L623.25,550.194ZM615.65,546.494C618.417,546.494 620.375,545.736 621.525,544.219C622.675,542.703 623.267,540.378 623.3,537.244L623.3,536.344C623.3,532.944 622.734,530.369 621.6,528.619C620.467,526.869 618.45,525.994 615.55,525.994C613.15,525.994 611.367,526.936 610.2,528.819C609.034,530.703 608.45,533.228 608.45,536.394C608.45,539.561 609.042,542.036 610.225,543.819C611.409,545.603 613.217,546.494 615.65,546.494Z"
                style="fill-rule:nonzero;" />
        </g>
        <g id="r" transform="matrix(1,0,0,1,-93.3837,-192.301)">
            <path
                d="M648.65,522.344C649.15,522.344 649.692,522.369 650.275,522.419C650.859,522.469 651.367,522.544 651.8,522.644L651.25,526.694C650.817,526.594 650.342,526.511 649.825,526.444C649.309,526.378 648.817,526.344 648.35,526.344C646.984,526.344 645.7,526.719 644.5,527.469C643.3,528.219 642.342,529.269 641.625,530.619C640.909,531.969 640.55,533.544 640.55,535.344L640.55,549.644L636.15,549.644L636.15,522.844L639.75,522.844L640.25,527.744L640.45,527.744C641.317,526.278 642.434,525.011 643.8,523.944C645.167,522.878 646.784,522.344 648.65,522.344Z"
                style="fill-rule:nonzero;" />
        </g>
        <g id="s" transform="matrix(1,0,0,1,-93.3837,-192.301)">
            <path
                d="M674.25,542.244C674.25,544.844 673.284,546.811 671.35,548.144C669.417,549.478 666.817,550.144 663.55,550.144C661.684,550.144 660.075,549.994 658.725,549.694C657.375,549.394 656.184,548.978 655.15,548.444L655.15,544.444C656.217,544.978 657.509,545.469 659.025,545.919C660.542,546.369 662.084,546.594 663.65,546.594C665.884,546.594 667.5,546.236 668.5,545.519C669.5,544.803 670,543.844 670,542.644C670,541.978 669.817,541.378 669.45,540.844C669.084,540.311 668.425,539.778 667.475,539.244C666.525,538.711 665.167,538.111 663.4,537.444C661.667,536.778 660.184,536.111 658.95,535.444C657.717,534.778 656.767,533.978 656.1,533.044C655.434,532.111 655.1,530.911 655.1,529.444C655.1,527.178 656.025,525.428 657.875,524.194C659.725,522.961 662.15,522.344 665.15,522.344C666.784,522.344 668.309,522.503 669.725,522.819C671.142,523.136 672.467,523.578 673.7,524.144L672.2,527.644C671.067,527.178 669.884,526.778 668.65,526.444C667.417,526.111 666.15,525.944 664.85,525.944C663.05,525.944 661.675,526.236 660.725,526.819C659.775,527.403 659.3,528.194 659.3,529.194C659.3,529.928 659.517,530.553 659.95,531.069C660.384,531.586 661.109,532.086 662.125,532.569C663.142,533.053 664.5,533.628 666.2,534.294C667.9,534.928 669.35,535.578 670.55,536.244C671.75,536.911 672.667,537.719 673.3,538.669C673.934,539.619 674.25,540.811 674.25,542.244Z"
                style="fill-rule:nonzero;" />
        </g>
        <g id="t" transform="matrix(1,0,0,1,-93.3837,-192.301)">
            <path
                d="M689.7,546.544C690.367,546.544 691.05,546.486 691.75,546.369C692.45,546.253 693.017,546.128 693.45,545.994L693.45,549.344C692.984,549.578 692.317,549.769 691.45,549.919C690.584,550.069 689.75,550.144 688.95,550.144C687.55,550.144 686.259,549.903 685.075,549.419C683.892,548.936 682.934,548.094 682.2,546.894C681.467,545.694 681.1,544.011 681.1,541.844L681.1,526.244L677.3,526.244L677.3,524.144L681.15,522.394L682.9,516.694L685.5,516.694L685.5,522.844L693.25,522.844L693.25,526.244L685.5,526.244L685.5,541.744C685.5,543.378 685.892,544.586 686.675,545.369C687.459,546.153 688.467,546.544 689.7,546.544Z"
                style="fill-rule:nonzero;" />
        </g>
        <g id="u" transform="matrix(1,0,0,1,-93.3837,-192.301)">
            <path
                d="M721.2,522.844L721.2,549.644L717.6,549.644L716.95,546.094L716.75,546.094C715.884,547.494 714.684,548.519 713.15,549.169C711.617,549.819 709.984,550.144 708.25,550.144C705.017,550.144 702.584,549.369 700.95,547.819C699.317,546.269 698.5,543.794 698.5,540.394L698.5,522.844L702.95,522.844L702.95,540.094C702.95,544.361 704.934,546.494 708.9,546.494C711.867,546.494 713.925,545.661 715.075,543.994C716.225,542.328 716.8,539.928 716.8,536.794L716.8,522.844L721.2,522.844Z"
                style="fill-rule:nonzero;" />
        </g>
        <g id="v" transform="matrix(1,0,0,1,-93.3837,-192.301)">
            <path
                d="M735.6,549.644L725.45,522.844L730.15,522.844L735.85,538.644C736.117,539.378 736.4,540.194 736.7,541.094C737,541.994 737.267,542.853 737.5,543.669C737.734,544.486 737.9,545.178 738,545.744L738.2,545.744C738.334,545.178 738.525,544.478 738.775,543.644C739.025,542.811 739.309,541.944 739.625,541.044C739.942,540.144 740.217,539.344 740.45,538.644L746.15,522.844L750.85,522.844L740.65,549.644L735.6,549.644Z"
                style="fill-rule:nonzero;" />
        </g>
        <g id="w" transform="matrix(1,0,0,1,-93.3837,-192.301)">
            <path
                d="M772.4,534.494C771.967,533.128 771.592,531.786 771.275,530.469C770.959,529.153 770.717,528.128 770.55,527.394L770.35,527.394C770.217,528.128 770,529.153 769.7,530.469C769.4,531.786 769.017,533.144 768.55,534.544L763.75,549.594L758.75,549.594L751.4,522.794L755.95,522.794L759.65,537.094C760.017,538.528 760.367,539.978 760.7,541.444C761.034,542.911 761.267,544.128 761.4,545.094L761.6,545.094C761.734,544.528 761.892,543.828 762.075,542.994C762.259,542.161 762.467,541.286 762.7,540.369C762.934,539.453 763.167,538.628 763.4,537.894L768.15,522.794L772.95,522.794L777.55,537.894C777.917,539.028 778.275,540.261 778.625,541.594C778.975,542.928 779.217,544.078 779.35,545.044L779.55,545.044C779.65,544.211 779.875,543.061 780.225,541.594C780.575,540.128 780.95,538.628 781.35,537.094L785.1,522.794L789.6,522.794L782.15,549.594L777,549.594L772.4,534.494Z"
                style="fill-rule:nonzero;" />
        </g>
        <g id="x" transform="matrix(1,0,0,1,-93.3837,-192.301)">
            <path
                d="M800.75,535.944L791.5,522.844L796.5,522.844L803.4,532.944L810.25,522.844L815.2,522.844L805.95,535.944L815.7,549.644L810.7,549.644L803.4,538.944L796,549.644L791.05,549.644L800.75,535.944Z"
                style="fill-rule:nonzero;" />
        </g>
        <g id="y" transform="matrix(1,0,0,1,-93.3837,-192.301)">
            <path
                d="M816.65,522.844L821.35,522.844L827.15,538.094C827.65,539.428 828.1,540.703 828.5,541.919C828.9,543.136 829.2,544.294 829.4,545.394L829.6,545.394C829.8,544.561 830.117,543.469 830.55,542.119C830.984,540.769 831.434,539.411 831.9,538.044L837.35,522.844L842.1,522.844L830.55,553.344C829.617,555.878 828.409,557.894 826.925,559.394C825.442,560.894 823.4,561.644 820.8,561.644C820,561.644 819.3,561.603 818.7,561.519C818.1,561.436 817.584,561.344 817.15,561.244L817.15,557.744C817.517,557.811 817.959,557.878 818.475,557.944C818.992,558.011 819.534,558.044 820.1,558.044C821.634,558.044 822.875,557.611 823.825,556.744C824.775,555.878 825.517,554.728 826.05,553.294L827.45,549.744L816.65,522.844Z"
                style="fill-rule:nonzero;" />
        </g>
        <g id="z" transform="matrix(1,0,0,1,-93.3837,-192.301)">
            <path
                d="M863.65,549.644L844.05,549.644L844.05,546.744L858.45,526.244L844.9,526.244L844.9,522.844L863.3,522.844L863.3,526.144L849.1,546.244L863.65,546.244L863.65,549.644Z"
                style="fill-rule:nonzero;" />
        </g>
        <g id="_0" serif:id="0" transform="matrix(1,0,0,1,-93.3837,-192.301)">
            <path
                d="M202.65,631.744C202.65,635.578 202.25,638.869 201.45,641.619C200.65,644.369 199.384,646.478 197.65,647.944C195.917,649.411 193.617,650.144 190.75,650.144C186.717,650.144 183.742,648.519 181.825,645.269C179.909,642.019 178.95,637.511 178.95,631.744C178.95,627.878 179.342,624.578 180.125,621.844C180.909,619.111 182.167,617.019 183.9,615.569C185.634,614.119 187.917,613.394 190.75,613.394C194.75,613.394 197.734,615.003 199.7,618.219C201.667,621.436 202.65,625.944 202.65,631.744ZM183.35,631.744C183.35,636.644 183.909,640.311 185.025,642.744C186.142,645.178 188.05,646.394 190.75,646.394C193.417,646.394 195.325,645.186 196.475,642.769C197.625,640.353 198.2,636.678 198.2,631.744C198.2,626.878 197.625,623.228 196.475,620.794C195.325,618.361 193.417,617.144 190.75,617.144C188.05,617.144 186.142,618.361 185.025,620.794C183.909,623.228 183.35,626.878 183.35,631.744Z"
                style="fill-rule:nonzero;" />
        </g>
        <g id="_1" serif:id="1" transform="matrix(1,0,0,1,-93.3837,-192.301)">
            <path
                d="M222.85,649.644L218.55,649.644L218.55,624.694C218.55,623.261 218.567,622.111 218.6,621.244C218.634,620.378 218.684,619.478 218.75,618.544C218.217,619.078 217.734,619.528 217.3,619.894C216.867,620.261 216.317,620.728 215.65,621.294L211.85,624.394L209.55,621.444L219.2,613.944L222.85,613.944L222.85,649.644Z"
                style="fill-rule:nonzero;" />
        </g>
        <g id="_2" serif:id="2" transform="matrix(1,0,0,1,-93.3837,-192.301)">
            <path
                d="M259.7,649.644L236.1,649.644L236.1,645.994L245.45,636.544C247.25,634.744 248.767,633.144 250,631.744C251.234,630.344 252.167,628.969 252.8,627.619C253.434,626.269 253.75,624.794 253.75,623.194C253.75,621.228 253.167,619.736 252,618.719C250.834,617.703 249.317,617.194 247.45,617.194C245.717,617.194 244.192,617.494 242.875,618.094C241.559,618.694 240.217,619.528 238.85,620.594L236.5,617.644C237.9,616.478 239.509,615.486 241.325,614.669C243.142,613.853 245.184,613.444 247.45,613.444C250.784,613.444 253.417,614.286 255.35,615.969C257.284,617.653 258.25,619.978 258.25,622.944C258.25,624.811 257.867,626.561 257.1,628.194C256.334,629.828 255.267,631.436 253.9,633.019C252.534,634.603 250.934,636.294 249.1,638.094L241.65,645.444L241.65,645.644L259.7,645.644L259.7,649.644Z"
                style="fill-rule:nonzero;" />
        </g>
        <g id="_3" serif:id="3" transform="matrix(1,0,0,1,-93.3837,-192.301)">
            <path
                d="M286.95,622.294C286.95,624.694 286.284,626.603 284.95,628.019C283.617,629.436 281.817,630.378 279.55,630.844L279.55,631.044C282.417,631.378 284.55,632.278 285.95,633.744C287.35,635.211 288.05,637.128 288.05,639.494C288.05,641.561 287.567,643.403 286.6,645.019C285.634,646.636 284.142,647.894 282.125,648.794C280.109,649.694 277.517,650.144 274.35,650.144C272.484,650.144 270.75,650.003 269.15,649.719C267.55,649.436 266.017,648.928 264.55,648.194L264.55,644.094C266.05,644.828 267.667,645.403 269.4,645.819C271.134,646.236 272.8,646.444 274.4,646.444C277.6,646.444 279.909,645.819 281.325,644.569C282.742,643.319 283.45,641.594 283.45,639.394C283.45,637.161 282.575,635.553 280.825,634.569C279.075,633.586 276.617,633.094 273.45,633.094L270,633.094L270,629.344L273.5,629.344C276.434,629.344 278.659,628.728 280.175,627.494C281.692,626.261 282.45,624.628 282.45,622.594C282.45,620.861 281.867,619.519 280.7,618.569C279.534,617.619 277.95,617.144 275.95,617.144C274.017,617.144 272.367,617.428 271,617.994C269.634,618.561 268.284,619.278 266.95,620.144L264.75,617.144C266.017,616.144 267.592,615.278 269.475,614.544C271.359,613.811 273.5,613.444 275.9,613.444C279.634,613.444 282.409,614.278 284.225,615.944C286.042,617.611 286.95,619.728 286.95,622.294Z"
                style="fill-rule:nonzero;" />
        </g>
        <g id="_4" serif:id="4" transform="matrix(1,0,0,1,-93.3837,-192.301)">
            <path
                d="M318.5,641.544L313.3,641.544L313.3,649.644L309.05,649.644L309.05,641.544L291.95,641.544L291.95,637.794L308.75,613.744L313.3,613.744L313.3,637.594L318.5,637.594L318.5,641.544ZM309.05,626.344C309.05,624.611 309.084,623.136 309.15,621.919C309.217,620.703 309.267,619.544 309.3,618.444L309.1,618.444C308.834,619.078 308.5,619.761 308.1,620.494C307.7,621.228 307.317,621.844 306.95,622.344L296.25,637.594L309.05,637.594L309.05,626.344Z"
                style="fill-rule:nonzero;" />
        </g>
        <g id="_5" serif:id="5" transform="matrix(1,0,0,1,-93.3837,-192.301)">
            <path
                d="M333.25,627.744C336.917,627.744 339.834,628.661 342,630.494C344.167,632.328 345.25,634.911 345.25,638.244C345.25,641.944 344.075,644.853 341.725,646.969C339.375,649.086 336.1,650.144 331.9,650.144C330.067,650.144 328.342,649.978 326.725,649.644C325.109,649.311 323.75,648.828 322.65,648.194L322.65,644.044C323.85,644.778 325.309,645.353 327.025,645.769C328.742,646.186 330.384,646.394 331.95,646.394C334.584,646.394 336.709,645.769 338.325,644.519C339.942,643.269 340.75,641.328 340.75,638.694C340.75,636.361 340.034,634.569 338.6,633.319C337.167,632.069 334.9,631.444 331.8,631.444C330.867,631.444 329.8,631.528 328.6,631.694C327.4,631.861 326.434,632.028 325.7,632.194L323.5,630.794L324.85,613.944L342.75,613.944L342.75,617.944L328.6,617.944L327.75,628.294C328.317,628.194 329.084,628.078 330.05,627.944C331.017,627.811 332.084,627.744 333.25,627.744Z"
                style="fill-rule:nonzero;" />
        </g>
        <g id="_6" serif:id="6" transform="matrix(1,0,0,1,-93.3837,-192.301)">
            <path
                d="M350.85,634.394C350.85,631.828 351.075,629.303 351.525,626.819C351.975,624.336 352.792,622.086 353.975,620.069C355.159,618.053 356.817,616.444 358.95,615.244C361.084,614.044 363.834,613.444 367.2,613.444C367.9,613.444 368.675,613.478 369.525,613.544C370.375,613.611 371.067,613.728 371.6,613.894L371.6,617.644C371,617.444 370.325,617.294 369.575,617.194C368.825,617.094 368.067,617.044 367.3,617.044C365,617.044 363.084,617.428 361.55,618.194C360.017,618.961 358.809,620.011 357.925,621.344C357.042,622.678 356.4,624.211 356,625.944C355.6,627.678 355.35,629.528 355.25,631.494L355.55,631.494C356.317,630.328 357.384,629.336 358.75,628.519C360.117,627.703 361.867,627.294 364,627.294C367.1,627.294 369.6,628.236 371.5,630.119C373.4,632.003 374.35,634.678 374.35,638.144C374.35,641.878 373.325,644.811 371.275,646.944C369.225,649.078 366.467,650.144 363,650.144C360.734,650.144 358.684,649.578 356.85,648.444C355.017,647.311 353.559,645.578 352.475,643.244C351.392,640.911 350.85,637.961 350.85,634.394ZM362.95,646.444C365.05,646.444 366.75,645.769 368.05,644.419C369.35,643.069 370,640.978 370,638.144C370,635.878 369.425,634.078 368.275,632.744C367.125,631.411 365.4,630.744 363.1,630.744C361.534,630.744 360.167,631.069 359,631.719C357.834,632.369 356.925,633.194 356.275,634.194C355.625,635.194 355.3,636.228 355.3,637.294C355.3,638.728 355.584,640.153 356.15,641.569C356.717,642.986 357.567,644.153 358.7,645.069C359.834,645.986 361.25,646.444 362.95,646.444Z"
                style="fill-rule:nonzero;" />
        </g>
        <g id="_7" serif:id="7" transform="matrix(1,0,0,1,-93.3837,-192.301)">
            <path
                d="M383.5,649.644L398.15,617.944L378.9,617.944L378.9,613.944L402.85,613.944L402.85,617.344L388.35,649.644L383.5,649.644Z"
                style="fill-rule:nonzero;" />
        </g>
        <g id="_8" serif:id="8" transform="matrix(1,0,0,1,-93.3837,-192.301)">
            <path
                d="M419.55,613.444C422.684,613.444 425.25,614.178 427.25,615.644C429.25,617.111 430.25,619.228 430.25,621.994C430.25,623.428 429.942,624.678 429.325,625.744C428.709,626.811 427.884,627.753 426.85,628.569C425.817,629.386 424.684,630.111 423.45,630.744C424.917,631.444 426.25,632.236 427.45,633.119C428.65,634.003 429.609,635.028 430.325,636.194C431.042,637.361 431.4,638.761 431.4,640.394C431.4,643.394 430.342,645.769 428.225,647.519C426.109,649.269 423.267,650.144 419.7,650.144C415.867,650.144 412.917,649.303 410.85,647.619C408.784,645.936 407.75,643.578 407.75,640.544C407.75,638.911 408.092,637.494 408.775,636.294C409.459,635.094 410.367,634.061 411.5,633.194C412.634,632.328 413.85,631.594 415.15,630.994C413.417,629.994 411.942,628.786 410.725,627.369C409.509,625.953 408.9,624.144 408.9,621.944C408.9,620.111 409.367,618.569 410.3,617.319C411.234,616.069 412.5,615.111 414.1,614.444C415.7,613.778 417.517,613.444 419.55,613.444ZM419.5,616.994C417.667,616.994 416.159,617.436 414.975,618.319C413.792,619.203 413.2,620.478 413.2,622.144C413.2,623.378 413.492,624.411 414.075,625.244C414.659,626.078 415.45,626.786 416.45,627.369C417.45,627.953 418.55,628.511 419.75,629.044C421.484,628.311 422.942,627.428 424.125,626.394C425.309,625.361 425.9,623.944 425.9,622.144C425.9,620.478 425.317,619.203 424.15,618.319C422.984,617.436 421.434,616.994 419.5,616.994ZM412.05,640.594C412.05,642.328 412.667,643.769 413.9,644.919C415.134,646.069 417.034,646.644 419.6,646.644C422.034,646.644 423.892,646.069 425.175,644.919C426.459,643.769 427.1,642.278 427.1,640.444C427.1,638.711 426.417,637.269 425.05,636.119C423.684,634.969 421.867,633.961 419.6,633.094L418.8,632.794C416.6,633.728 414.925,634.803 413.775,636.019C412.625,637.236 412.05,638.761 412.05,640.594Z"
                style="fill-rule:nonzero;" />
        </g>
        <g id="_9" serif:id="9" transform="matrix(1,0,0,1,-93.3837,-192.301)">
            <path
                d="M459.9,629.194C459.9,631.761 459.675,634.286 459.225,636.769C458.775,639.253 457.959,641.503 456.775,643.519C455.592,645.536 453.925,647.144 451.775,648.344C449.625,649.544 446.867,650.144 443.5,650.144C442.834,650.144 442.059,650.103 441.175,650.019C440.292,649.936 439.567,649.811 439,649.644L439,645.894C440.3,646.328 441.767,646.544 443.4,646.544C445.734,646.544 447.659,646.161 449.175,645.394C450.692,644.628 451.9,643.586 452.8,642.269C453.7,640.953 454.35,639.419 454.75,637.669C455.15,635.919 455.384,634.078 455.45,632.144L455.15,632.144C454.417,633.278 453.359,634.253 451.975,635.069C450.592,635.886 448.817,636.294 446.65,636.294C443.584,636.294 441.109,635.353 439.225,633.469C437.342,631.586 436.4,628.928 436.4,625.494C436.4,622.994 436.875,620.844 437.825,619.044C438.775,617.244 440.1,615.861 441.8,614.894C443.5,613.928 445.5,613.444 447.8,613.444C450.067,613.444 452.117,614.019 453.95,615.169C455.784,616.319 457.234,618.053 458.3,620.369C459.367,622.686 459.9,625.628 459.9,629.194ZM447.8,617.144C445.734,617.144 444.042,617.828 442.725,619.194C441.409,620.561 440.75,622.644 440.75,625.444C440.75,627.744 441.309,629.553 442.425,630.869C443.542,632.186 445.267,632.844 447.6,632.844C449.2,632.844 450.584,632.519 451.75,631.869C452.917,631.219 453.825,630.394 454.475,629.394C455.125,628.394 455.45,627.361 455.45,626.294C455.45,624.861 455.167,623.444 454.6,622.044C454.034,620.644 453.184,619.478 452.05,618.544C450.917,617.611 449.5,617.144 447.8,617.144Z"
                style="fill-rule:nonzero;" />
        </g>
        <g id="_-" serif:id="+" transform="matrix(1,0,0,1,-93.3837,-192.301)">
            <path
                d="M192.55,730.244L202.5,730.244L202.5,733.794L192.55,733.794L192.55,744.094L188.95,744.094L188.95,733.794L179,733.794L179,730.244L188.95,730.244L188.95,719.894L192.55,719.894L192.55,730.244Z"
                style="fill-rule:nonzero;" />
        </g>
        <g id="_-1" serif:id="-" transform="matrix(1,0,0,1,-93.3837,-192.301)">
            <path d="M207.1,738.194L207.1,734.294L219.2,734.294L219.2,738.194L207.1,738.194Z"
                style="fill-rule:nonzero;" />
        </g>
        <g id="_-2" serif:id="(" transform="matrix(1,0,0,1,-93.3837,-192.301)">
            <path
                d="M178.5,835.944C178.5,831.878 179.092,827.953 180.275,824.169C181.459,820.386 183.317,816.978 185.85,813.944L190,813.944C187.667,817.078 185.909,820.528 184.725,824.294C183.542,828.061 182.95,831.928 182.95,835.894C182.95,839.761 183.542,843.553 184.725,847.269C185.909,850.986 187.65,854.411 189.95,857.544L185.85,857.544C183.317,854.611 181.459,851.286 180.275,847.569C179.092,843.853 178.5,839.978 178.5,835.944Z"
                style="fill-rule:nonzero;" />
        </g>
        <g id="_-3" serif:id=")" transform="matrix(1,0,0,1,-93.3837,-192.301)">
            <path
                d="M204.5,835.944C204.5,839.978 203.909,843.853 202.725,847.569C201.542,851.286 199.684,854.611 197.15,857.544L193.05,857.544C195.35,854.411 197.092,850.986 198.275,847.269C199.459,843.553 200.05,839.761 200.05,835.894C200.05,831.928 199.459,828.061 198.275,824.294C197.092,820.528 195.334,817.078 193,813.944L197.15,813.944C199.684,816.978 201.542,820.386 202.725,824.169C203.909,827.953 204.5,831.878 204.5,835.944Z"
                style="fill-rule:nonzero;" />
        </g>
        <g id="_-4" serif:id="{" transform="matrix(1,0,0,1,-93.3837,-192.301)">
            <path
                d="M223.9,857.544C220.834,857.511 218.417,856.844 216.65,855.544C214.884,854.244 214,852.261 214,849.594L214,842.244C214,840.544 213.475,839.336 212.425,838.619C211.375,837.903 209.867,837.544 207.9,837.544L207.9,833.894C209.867,833.861 211.375,833.494 212.425,832.794C213.475,832.094 214,830.911 214,829.244L214,821.844C214,819.178 214.917,817.194 216.75,815.894C218.584,814.594 220.967,813.944 223.9,813.944L223.9,817.544C222.167,817.578 220.809,817.961 219.825,818.694C218.842,819.428 218.35,820.611 218.35,822.244L218.35,829.444C218.35,832.878 216.534,834.911 212.9,835.544L212.9,835.844C216.534,836.478 218.35,838.511 218.35,841.944L218.35,849.294C218.35,850.928 218.834,852.103 219.8,852.819C220.767,853.536 222.134,853.911 223.9,853.944L223.9,857.544Z"
                style="fill-rule:nonzero;" />
        </g>
        <g id="_-5" serif:id="}" transform="matrix(1,0,0,1,-93.3837,-192.301)">
            <path
                d="M227.1,853.944C228.834,853.878 230.192,853.486 231.175,852.769C232.159,852.053 232.65,850.878 232.65,849.244L232.65,841.994C232.65,838.561 234.467,836.528 238.1,835.894L238.1,835.594C234.467,834.961 232.65,832.928 232.65,829.494L232.65,822.194C232.65,820.561 232.167,819.386 231.2,818.669C230.234,817.953 228.867,817.578 227.1,817.544L227.1,813.944C230.167,813.978 232.584,814.644 234.35,815.944C236.117,817.244 237,819.228 237,821.894L237,829.194C237,830.894 237.525,832.103 238.575,832.819C239.625,833.536 241.134,833.894 243.1,833.894L243.1,837.544C241.134,837.578 239.625,837.944 238.575,838.644C237.525,839.344 237,840.528 237,842.194L237,849.644C237,852.278 236.084,854.253 234.25,855.569C232.417,856.886 230.034,857.544 227.1,857.544L227.1,853.944Z"
                style="fill-rule:nonzero;" />
        </g>
        <g id="_-6" serif:id="[" transform="matrix(1,0,0,1,-93.3837,-192.301)">
            <path
                d="M259.7,857.544L248.5,857.544L248.5,813.944L259.7,813.944L259.7,817.544L252.8,817.544L252.8,853.944L259.7,853.944L259.7,857.544Z"
                style="fill-rule:nonzero;" />
        </g>
        <g id="_-7" serif:id="]" transform="matrix(1,0,0,1,-93.3837,-192.301)">
            <path
                d="M262.2,853.944L269.1,853.944L269.1,817.544L262.2,817.544L262.2,813.944L273.4,813.944L273.4,857.544L262.2,857.544L262.2,853.944Z"
                style="fill-rule:nonzero;" />
        </g>
    </g>
</svg>